# xmcd CD database file
#
# Track frame offsets:
#	150
#	16645
#	31163
#	45770
#	58970
#	76228
#	96320
#	113355
#	130670
#
# Disc length: 1983 seconds
#
# Revision: 0
# Processed by: cddbd v1.4PL0 Copyright (c) Steve Scherf et al.
# Submitted via: CDex 1.40Beta8
#
DISCID=5a07bd09
DTITLE=Juice Newton - Emotion
DYEAR=1987
DGENRE=Country
TTITLE0=First Time Caller
TTITLE1=Tell Me True
TTITLE2=Emotions
TTITLE3=Walkin' Into Trouble
TTITLE4=If I Didn't Love You
TTITLE5=I Still Love You
TTITLE6=Someone Believed
TTITLE7=Old Bye And Bye
TTITLE8='Til You Cry
EXTD=YEAR: 1987 ID3G: 2
EXTT0=
EXTT1=
EXTT2=
EXTT3=
EXTT4=
EXTT5=
EXTT6=
EXTT7=
EXTT8=
PLAYORDER=
